TITLE ""
FILE "P1Q_t_1068-1077.mp3" MP3
  TRACK 01 AUDIO
    TITLE "P1Q_t_1068-1077_01"
    INDEX 01 00:00:00
  TRACK 02 AUDIO
    TITLE "P1Q_t_1068-1077_02"
    INDEX 01 00:01:22
  TRACK 03 AUDIO
    TITLE "P1Q_t_1068-1077_03"
    INDEX 01 00:01:45
  TRACK 04 AUDIO
    TITLE "P1Q_t_1068-1077_04"
    INDEX 01 00:04:10
  TRACK 05 AUDIO
    TITLE "P1Q_t_1068-1077_05"
    INDEX 01 00:04:30
  TRACK 06 AUDIO
    TITLE "P1Q_t_1068-1077_06"
    INDEX 01 00:08:37
  TRACK 07 AUDIO
    TITLE "P1Q_t_1068-1077_07"
    INDEX 01 00:09:09
  TRACK 08 AUDIO
    TITLE "P1Q_t_1068-1077_08"
    INDEX 01 00:10:19
  TRACK 09 AUDIO
    TITLE "P1Q_t_1068-1077_09"
    INDEX 01 00:10:38
  TRACK 10 AUDIO
    TITLE "P1Q_t_1068-1077_10"
    INDEX 01 00:14:67
  TRACK 11 AUDIO
    TITLE "P1Q_t_1068-1077_11"
    INDEX 01 00:15:12
  TRACK 12 AUDIO
    TITLE "P1Q_t_1068-1077_12"
    INDEX 01 00:19:53
  TRACK 13 AUDIO
    TITLE "P1Q_t_1068-1077_13"
    INDEX 01 00:20:27
  TRACK 14 AUDIO
    TITLE "P1Q_t_1068-1077_14"
    INDEX 01 00:21:34
  TRACK 15 AUDIO
    TITLE "P1Q_t_1068-1077_15"
    INDEX 01 00:21:58
  TRACK 16 AUDIO
    TITLE "P1Q_t_1068-1077_16"
    INDEX 01 00:23:41
  TRACK 17 AUDIO
    TITLE "P1Q_t_1068-1077_17"
    INDEX 01 00:23:60
  TRACK 18 AUDIO
    TITLE "P1Q_t_1068-1077_18"
    INDEX 01 00:27:13
  TRACK 19 AUDIO
    TITLE "P1Q_t_1068-1077_19"
    INDEX 01 00:27:60
  TRACK 20 AUDIO
    TITLE "P1Q_t_1068-1077_20"
    INDEX 01 00:29:08
  TRACK 21 AUDIO
    TITLE "P1Q_t_1068-1077_21"
    INDEX 01 00:29:28
  TRACK 22 AUDIO
    TITLE "P1Q_t_1068-1077_22"
    INDEX 01 00:32:08
  TRACK 23 AUDIO
    TITLE "P1Q_t_1068-1077_23"
    INDEX 01 00:32:28
  TRACK 24 AUDIO
    TITLE "P1Q_t_1068-1077_24"
    INDEX 01 00:37:08
  TRACK 25 AUDIO
    TITLE "P1Q_t_1068-1077_25"
    INDEX 01 00:37:53
  TRACK 26 AUDIO
    TITLE "P1Q_t_1068-1077_26"
    INDEX 01 00:39:04
  TRACK 27 AUDIO
    TITLE "P1Q_t_1068-1077_27"
    INDEX 01 00:39:28
  TRACK 28 AUDIO
    TITLE "P1Q_t_1068-1077_28"
    INDEX 01 00:42:46
  TRACK 29 AUDIO
    TITLE "P1Q_t_1068-1077_29"
    INDEX 01 00:42:66
  TRACK 30 AUDIO
    TITLE "P1Q_t_1068-1077_30"
    INDEX 01 00:47:10
  TRACK 31 AUDIO
    TITLE "P1Q_t_1068-1077_31"
    INDEX 01 00:47:55
  TRACK 32 AUDIO
    TITLE "P1Q_t_1068-1077_32"
    INDEX 01 00:48:62
  TRACK 33 AUDIO
    TITLE "P1Q_t_1068-1077_33"
    INDEX 01 00:49:09
  TRACK 34 AUDIO
    TITLE "P1Q_t_1068-1077_34"
    INDEX 01 00:50:57
  TRACK 35 AUDIO
    TITLE "P1Q_t_1068-1077_35"
    INDEX 01 00:51:02
  TRACK 36 AUDIO
    TITLE "P1Q_t_1068-1077_36"
    INDEX 01 00:55:51
  TRACK 37 AUDIO
    TITLE "P1Q_t_1068-1077_37"
    INDEX 01 00:56:21
  TRACK 38 AUDIO
    TITLE "P1Q_t_1068-1077_38"
    INDEX 01 00:57:36
  TRACK 39 AUDIO
    TITLE "P1Q_t_1068-1077_39"
    INDEX 01 00:57:55
  TRACK 40 AUDIO
    TITLE "P1Q_t_1068-1077_40"
    INDEX 01 01:00:48
  TRACK 41 AUDIO
    TITLE "P1Q_t_1068-1077_41"
    INDEX 01 01:00:67
  TRACK 42 AUDIO
    TITLE "P1Q_t_1068-1077_42"
    INDEX 01 01:04:40
  TRACK 43 AUDIO
    TITLE "P1Q_t_1068-1077_43"
    INDEX 01 01:04:61
  TRACK 44 AUDIO
    TITLE "P1Q_t_1068-1077_44"
    INDEX 01 01:06:03
  TRACK 45 AUDIO
    TITLE "P1Q_t_1068-1077_45"
    INDEX 01 01:06:50
  TRACK 46 AUDIO
    TITLE "P1Q_t_1068-1077_46"
    INDEX 01 01:09:11
  TRACK 47 AUDIO
    TITLE "P1Q_t_1068-1077_47"
    INDEX 01 01:09:31
  TRACK 48 AUDIO
    TITLE "P1Q_t_1068-1077_48"
    INDEX 01 01:13:50
  TRACK 49 AUDIO
    TITLE "P1Q_t_1068-1077_49"
    INDEX 01 01:14:20
  TRACK 50 AUDIO
    TITLE "P1Q_t_1068-1077_50"
    INDEX 01 01:15:28
  TRACK 51 AUDIO
    TITLE "P1Q_t_1068-1077_51"
    INDEX 01 01:15:49
  TRACK 52 AUDIO
    TITLE "P1Q_t_1068-1077_52"
    INDEX 01 01:19:41
  TRACK 53 AUDIO
    TITLE "P1Q_t_1068-1077_53"
    INDEX 01 01:19:61
  TRACK 54 AUDIO
    TITLE "P1Q_t_1068-1077_54"
    INDEX 01 01:23:68
  TRACK 55 AUDIO
    TITLE "P1Q_t_1068-1077_55"
    INDEX 01 01:24:40
  TRACK 56 AUDIO
    TITLE "P1Q_t_1068-1077_56"
    INDEX 01 01:25:50
  TRACK 57 AUDIO
    TITLE "P1Q_t_1068-1077_57"
    INDEX 01 01:25:69
  TRACK 58 AUDIO
    TITLE "P1Q_t_1068-1077_58"
    INDEX 01 01:28:26
  TRACK 59 AUDIO
    TITLE "P1Q_t_1068-1077_59"
    INDEX 01 01:28:46
  TRACK 60 AUDIO
    TITLE "P1Q_t_1068-1077_60"
    INDEX 01 01:33:28
